<svg width="81" height="86" viewBox="0 0 81 86" fill="none" xmlns="http://www.w3.org/2000/svg">
<path d="M11.9676 14.1594C9.14118 14.1594 6.83069 16.5861 6.83069 19.6078V34.1217H10.2628V19.6078C10.2628 18.6085 11.0255 17.7998 11.9676 17.7998H53.0183V14.1594H11.9676Z" fill="#E6A859"/>
<path d="M11.9674 67.8246C11.0253 67.8246 10.2626 67.0156 10.2626 66.0163V47.8623H6.85291V66.0163C6.85291 69.0142 9.14098 71.4647 11.9898 71.4647H29.1055V67.8484H11.9674V67.8246Z" fill="#E6A859"/>
<path d="M54.2519 72.1714L12.7078 28.1069C12.0348 27.3931 10.9581 27.3931 10.2851 28.1069L0.504721 38.4805C-0.16824 39.1943 -0.16824 40.3366 0.504721 41.0504L42.0489 85.1145C42.7219 85.8283 43.7986 85.8283 44.4716 85.1145L54.2519 74.7409C54.9249 74.0509 54.9249 72.9089 54.2519 72.1714C54.2519 72.1951 54.2519 72.1951 54.2519 72.1714ZM43.2602 81.2601L4.13872 39.7654L11.4964 31.9613L50.618 73.4798L43.2602 81.2601Z" fill="#E6A859"/>
<path d="M73.9249 67.5033H48.2626V71.1199H67.0831V80.1849C67.0831 81.1842 67.8458 81.9931 68.7879 81.9931H73.9249C77.6934 82.0883 80.8339 78.9239 80.9461 74.9267C81.0358 70.9295 78.0523 67.5985 74.2838 67.4795C74.1492 67.5033 74.037 67.5033 73.9249 67.5033ZM73.9249 78.4004H70.5152V71.1437H73.9249C75.8092 71.1437 77.357 72.7614 77.357 74.7838C77.357 76.8062 75.8092 78.3766 73.9249 78.4004Z" fill="#E6A859"/>
<path d="M73.9158 13.0669H65.3691V16.6835H73.9158C75.8 16.6835 77.3254 18.3012 77.3254 20.3236V74.7617H80.7351V20.3236C80.7575 16.3263 77.6843 13.0669 73.9158 13.0669Z" fill="#E6A859"/>
<path d="M30.8614 50.4126L25.7169 55.8552L28.1304 58.4086L33.2749 52.966L30.8614 50.4126Z" fill="#E6A859"/>
<path d="M24.1431 43.2818L18.9987 48.7244L21.4121 51.2777L26.5566 45.8351L24.1431 43.2818Z" fill="#E6A859"/>
<path d="M37.5751 57.5406L32.4307 62.9832L34.8441 65.5365L39.9886 60.0939L37.5751 57.5406Z" fill="#E6A859"/>
<path d="M44.2982 64.6761L39.1537 70.1187L41.5672 72.672L46.7117 67.2294L44.2982 64.6761Z" fill="#E6A859"/>
<path d="M17.4202 36.1507L12.2758 41.5933L14.6892 44.1466L19.8337 38.704L17.4202 36.1507Z" fill="#E6A859"/>
<path d="M72.4398 4.01488L70.0845 1.5168C68.088 -0.505599 64.9251 -0.505599 62.9286 1.5168L36.9074 29.1165C36.2345 29.8303 36.2345 30.9722 36.9074 31.686L43.996 39.2047C44.6689 39.9184 45.7457 39.9184 46.4186 39.2047L72.4398 11.605C74.4139 9.51118 74.4139 6.10865 72.4398 4.01488ZM70.0172 9.03514L45.2073 35.3502L40.5414 30.4014L65.3289 4.08632C65.9794 3.42012 66.9888 3.42012 67.6394 4.08632L69.9947 6.58469C70.6453 7.25089 70.6453 8.34515 70.0172 9.03514Z" fill="#E6A859"/>
<path d="M45.3531 35.6253L37.9729 38.2428L40.4405 30.391L37.1878 29.249L33.6436 40.5268C33.3519 41.4785 33.8454 42.5015 34.7427 42.8108C34.9222 42.8584 35.1016 42.9061 35.2811 42.9061C35.4606 42.9061 35.64 42.8822 35.8195 42.8108L46.4523 39.0517L45.3531 35.6253Z" fill="#E6A859"/>
<path d="M60.8657 6.57266L58.4523 9.12598L65.5497 16.6347L67.9632 14.0813L60.8657 6.57266Z" fill="#E6A859"/>
<path d="M60.7326 39.197H35.0703V42.8135H60.7326V39.197Z" fill="#E6A859"/>
<path d="M67.3052 39.197H63.8955V42.8135H67.3052V39.197Z" fill="#E6A859"/>
<path d="M73.9114 39.197H70.5017V42.8135H73.9114V39.197Z" fill="#E6A859"/>
</svg>
