<svg width="81" height="86" viewBox="0 0 81 86" fill="none" xmlns="http://www.w3.org/2000/svg">
<path d="M52.1548 28.551H28.6011C27.6814 28.551 26.9187 29.36 26.9187 30.3355V37.4734C26.9187 38.4489 27.6814 39.2578 28.6011 39.2578H52.1548C53.0745 39.2578 53.8372 38.4489 53.8372 37.4734V30.3355C53.8372 29.36 53.0745 28.551 52.1548 28.551ZM50.4724 35.6889H30.2835V32.12H50.4724V35.6889Z" fill="#E6A859"/>
<path d="M52.1548 46.3967H28.6011C27.6814 46.3967 26.9187 47.2057 26.9187 48.1812V55.319C26.9187 56.2946 27.6814 57.1035 28.6011 57.1035H52.1548C53.0745 57.1035 53.8372 56.2946 53.8372 55.319V48.1812C53.8372 47.2057 53.0745 46.3967 52.1548 46.3967ZM50.4724 53.5346H30.2835V49.9657H50.4724V53.5346Z" fill="#E6A859"/>
<path d="M52.1548 64.2407H28.6011C27.6814 64.2407 26.9187 65.0497 26.9187 66.0252V73.1631C26.9187 74.1386 27.6814 74.9476 28.6011 74.9476H52.1548C53.0745 74.9476 53.8372 74.1386 53.8372 73.1631V66.0252C53.8372 65.0497 53.0745 64.2407 52.1548 64.2407ZM50.4724 71.3786H30.2835V67.8097H50.4724V71.3786Z" fill="#E6A859"/>
<path d="M79.0731 14.2757H60.5666V1.78447C60.5666 0.808959 59.8039 0 58.8842 0H21.8713C20.9516 0 20.1889 0.808959 20.1889 1.78447V14.2757H1.68241C0.76269 14.2757 0 15.0847 0 16.0602V44.6117C0 45.5872 0.76269 46.3962 1.68241 46.3962C2.60212 46.3962 3.36481 45.5872 3.36481 44.6117V35.6894H20.1889V64.2408H3.36481V55.3185C3.36481 54.343 2.60212 53.534 1.68241 53.534C0.76269 53.534 0 54.343 0 55.3185V83.87C0 84.8455 0.76269 85.6545 1.68241 85.6545H79.0731C79.9928 85.6545 80.7555 84.8455 80.7555 83.87V55.3185C80.7555 54.343 79.9928 53.534 79.0731 53.534C78.1533 53.534 77.3906 54.343 77.3906 55.3185V64.2408H60.5666V35.6894H77.3906V44.6117C77.3906 45.5872 78.1533 46.3962 79.0731 46.3962C79.9928 46.3962 80.7555 45.5872 80.7555 44.6117V16.0602C80.7555 15.0847 79.9928 14.2757 79.0731 14.2757ZM23.5537 3.56894H57.2018V17.8447H23.5537V3.56894ZM3.36481 32.1204V17.8447H20.1889V32.1204H3.36481ZM20.1889 67.8098V82.0855H3.36481V67.8098H20.1889ZM23.5537 21.4136H57.2018V82.0855H23.5537V21.4136ZM77.3906 67.8098V82.0855H60.5666V67.8098H77.3906ZM60.5666 32.1204V17.8447H77.3906V32.1204H60.5666Z" fill="#E6A859"/>
<path d="M1.68241 51.7498C2.61158 51.7498 3.36483 50.9509 3.36483 49.9654C3.36483 48.9798 2.61158 48.1809 1.68241 48.1809C0.753242 48.1809 0 48.9798 0 49.9654C0 50.9509 0.753242 51.7498 1.68241 51.7498Z" fill="#E6A859"/>
<path d="M79.0733 51.7498C80.0024 51.7498 80.7556 50.9509 80.7556 49.9654C80.7556 48.9798 80.0024 48.1809 79.0733 48.1809C78.1441 48.1809 77.3909 48.9798 77.3909 49.9654C77.3909 50.9509 78.1441 51.7498 79.0733 51.7498Z" fill="#E6A859"/>
</svg>
