<svg width="81" height="86" viewBox="0 0 81 86" fill="none" xmlns="http://www.w3.org/2000/svg">
<path d="M79.0731 14.2757H60.5666V1.78447C60.5666 0.808959 59.8039 0 58.8842 0H21.8713C20.9516 0 20.1889 0.808959 20.1889 1.78447V14.2757H1.68241C0.76269 14.2757 0 15.0847 0 16.0602V44.6117C0 45.5872 0.76269 46.3962 1.68241 46.3962C2.60212 46.3962 3.36481 45.5872 3.36481 44.6117V35.6894H20.1889V64.2408H3.36481V55.3185C3.36481 54.343 2.60212 53.534 1.68241 53.534C0.76269 53.534 0 54.343 0 55.3185V83.87C0 84.8455 0.76269 85.6544 1.68241 85.6544H79.0731C79.9928 85.6544 80.7555 84.8455 80.7555 83.87V55.3185C80.7555 54.343 79.9928 53.534 79.0731 53.534C78.1533 53.534 77.3906 54.343 77.3906 55.3185V64.2408H60.5666V35.6894H77.3906V44.6117C77.3906 45.5872 78.1533 46.3962 79.0731 46.3962C79.9928 46.3962 80.7555 45.5872 80.7555 44.6117V16.0602C80.7555 15.0847 79.9928 14.2757 79.0731 14.2757ZM23.5537 3.56894H57.2018V17.8447H23.5537V3.56894ZM3.36481 32.1204V17.8447H20.1889V32.1204H3.36481ZM20.1889 67.8098V82.0855H3.36481V67.8098H20.1889ZM23.5537 21.4136H57.2018V82.0855H23.5537V21.4136ZM77.3906 67.8098V82.0855H60.5666V67.8098H77.3906ZM60.5666 32.1204V17.8447H77.3906V32.1204H60.5666Z" fill="#E6A859"/>
</svg>
